# xmcd
#
# Track frame offsets:
# 150
# 13320
# 26745
# 42655
# 60050
# 77617
# 95490
# 117902
# 135275
# 155055
# 172472
# 184137
# 198477
# 224587
#
# Disc length: 3242 seconds
#
#
# Revision: 6
# Processed by: cddbd v1.5.2PL0 Copyright (c) Steve Scherf et al.
# Submitted via: FreeRIP 2.945 
#
DISCID=c90ca80e
DTITLE=Johnny Madsen - The Blues
DYEAR=1998
DGENRE=Blues
TTITLE0=Keep on Knockin'
TTITLE1=Rock island line
TTITLE2=John Hurt
TTITLE3=Dust my broom
TTITLE4=I'm a stranger
TTITLE5=It's all over now
TTITLE6=Gotta serve somebody
TTITLE7=Mean twn blues
TTITLE8=Long black weil
TTITLE9=Let it bleed
TTITLE10=Rip it up
TTITLE11=Highway 61
TTITLE12=Gamblin' man
TTITLE13=Whole lotta shakin'
EXTD=
EXTT0=
EXTT1=
EXTT2=
EXTT3=
EXTT4=
EXTT5=
EXTT6=
EXTT7=
EXTT8=
EXTT9=
EXTT10=
EXTT11=
EXTT12=
EXTT13=
PLAYORDER=
